<svg width="45" height="40" viewBox="0 0 45 40" fill="none" xmlns="http://www.w3.org/2000/svg">
<g style="mix-blend-mode:difference">
<path d="M2.30556 28V8.55555H11.8056C14.25 8.55555 16.0833 9.01852 17.3056 9.94444C18.5463 10.8704 19.1667 12.0926 19.1667 13.6111C19.1667 14.6296 18.9167 15.5185 18.4167 16.2778C17.9167 17.0185 17.2315 17.5926 16.3611 18C15.4907 18.4074 14.4907 18.6111 13.3611 18.6111L13.8889 17.4722C15.1111 17.4722 16.1944 17.6759 17.1389 18.0833C18.0833 18.4722 18.8148 19.0556 19.3333 19.8333C19.8704 20.6111 20.1389 21.5648 20.1389 22.6944C20.1389 24.3611 19.4815 25.6667 18.1667 26.6111C16.8519 27.537 14.9167 28 12.3611 28H2.30556ZM6.77778 24.6111H12.0278C13.1944 24.6111 14.0741 24.4259 14.6667 24.0556C15.2778 23.6667 15.5833 23.0556 15.5833 22.2222C15.5833 21.4074 15.2778 20.8056 14.6667 20.4167C14.0741 20.0093 13.1944 19.8056 12.0278 19.8056H6.44444V16.5278H11.25C12.3426 16.5278 13.1759 16.3426 13.75 15.9722C14.3426 15.5833 14.6389 15 14.6389 14.2222C14.6389 13.463 14.3426 12.8981 13.75 12.5278C13.1759 12.1389 12.3426 11.9444 11.25 11.9444H6.77778V24.6111ZM27.3023 28V12.2222H21.0801V8.55555H38.0245V12.2222H31.8023V28H27.3023Z" fill="#F9FAFB"/>
</g>
<g style="mix-blend-mode:difference">
<mask id="path-2-outside-1_1112_2679" maskUnits="userSpaceOnUse" x="7.6665" y="14.6667" width="38" height="21" fill="black">
<rect fill="white" x="7.6665" y="14.6667" width="38" height="21"/>
<path d="M8.97206 34.6667V15.2223H18.4721C20.9165 15.2223 22.7498 15.6853 23.9721 16.6112C25.2128 17.5371 25.8332 18.7593 25.8332 20.2779C25.8332 21.2964 25.5832 22.1853 25.0832 22.9445C24.5832 23.6853 23.898 24.2593 23.0276 24.6667C22.1572 25.0742 21.1572 25.2779 20.0276 25.2779L20.5554 24.139C21.7776 24.139 22.861 24.3427 23.8054 24.7501C24.7498 25.139 25.4813 25.7223 25.9998 26.5001C26.5369 27.2779 26.8054 28.2316 26.8054 29.3612C26.8054 31.0279 26.148 32.3334 24.8332 33.2779C23.5184 34.2038 21.5832 34.6667 19.0276 34.6667H8.97206ZM13.4443 31.2779H18.6943C19.8609 31.2779 20.7406 31.0927 21.3332 30.7223C21.9443 30.3334 22.2498 29.7223 22.2498 28.889C22.2498 28.0742 21.9443 27.4723 21.3332 27.0834C20.7406 26.676 19.8609 26.4723 18.6943 26.4723H13.1109V23.1945H17.9165C19.0091 23.1945 19.8424 23.0093 20.4165 22.639C21.0091 22.2501 21.3054 21.6667 21.3054 20.889C21.3054 20.1297 21.0091 19.5649 20.4165 19.1945C19.8424 18.8056 19.0091 18.6112 17.9165 18.6112H13.4443V31.2779ZM33.9688 34.6667V18.889H27.7466V15.2223H44.691V18.889H38.4688V34.6667H33.9688Z"/>
</mask>
<path d="M8.97206 34.6667H8.47206V35.1667H8.97206V34.6667ZM8.97206 15.2223V14.7223H8.47206V15.2223H8.97206ZM23.9721 16.6112L23.6701 17.0097L23.673 17.0119L23.9721 16.6112ZM25.0832 22.9445L25.4976 23.2243L25.5008 23.2195L25.0832 22.9445ZM23.0276 24.6667L23.2396 25.1196L23.2396 25.1196L23.0276 24.6667ZM20.0276 25.2779L19.574 25.0676L19.2448 25.7779H20.0276V25.2779ZM20.5554 24.139V23.639H20.236L20.1017 23.9287L20.5554 24.139ZM23.8054 24.7501L23.6073 25.2092L23.615 25.2124L23.8054 24.7501ZM25.9998 26.5001L25.5838 26.7775L25.5884 26.7842L25.9998 26.5001ZM24.8332 33.2779L25.1211 33.6867L25.1249 33.684L24.8332 33.2779ZM13.4443 31.2779H12.9443V31.7779H13.4443V31.2779ZM21.3332 30.7223L21.5982 31.1463L21.6016 31.1441L21.3332 30.7223ZM21.3332 27.0834L21.0499 27.4954L21.0572 27.5005L21.0647 27.5052L21.3332 27.0834ZM13.1109 26.4723H12.6109V26.9723H13.1109V26.4723ZM13.1109 23.1945V22.6945H12.6109V23.1945H13.1109ZM20.4165 22.639L20.6876 23.0591L20.6908 23.057L20.4165 22.639ZM20.4165 19.1945L20.1361 19.6085L20.1437 19.6136L20.1515 19.6185L20.4165 19.1945ZM13.4443 18.6112V18.1112H12.9443V18.6112H13.4443ZM9.47206 34.6667V15.2223H8.47206V34.6667H9.47206ZM8.97206 15.7223H18.4721V14.7223H8.97206V15.7223ZM18.4721 15.7223C20.8676 15.7223 22.5729 16.1785 23.6701 17.0097L24.274 16.2126C22.9268 15.192 20.9654 14.7223 18.4721 14.7223V15.7223ZM23.673 17.0119C24.7902 17.8456 25.3332 18.9207 25.3332 20.2779H26.3332C26.3332 18.5979 25.6354 17.2286 24.2711 16.2105L23.673 17.0119ZM25.3332 20.2779C25.3332 21.2108 25.1055 22.0015 24.6656 22.6695L25.5008 23.2195C26.0608 22.369 26.3332 21.382 26.3332 20.2779H25.3332ZM24.6687 22.6648C24.2231 23.3249 23.6105 23.8418 22.8156 24.2139L23.2396 25.1196C24.1855 24.6768 24.9432 24.0456 25.4976 23.2243L24.6687 22.6648ZM22.8156 24.2139C22.0223 24.5853 21.0967 24.7779 20.0276 24.7779V25.7779C21.2178 25.7779 22.2922 25.563 23.2396 25.1196L22.8156 24.2139ZM20.4813 25.4881L21.009 24.3492L20.1017 23.9287L19.574 25.0676L20.4813 25.4881ZM20.5554 24.639C21.7221 24.639 22.7361 24.8333 23.6073 25.2092L24.0034 24.291C22.9858 23.852 21.8331 23.639 20.5554 23.639V24.639ZM23.615 25.2124C24.4764 25.5671 25.1256 26.09 25.5838 26.7774L26.4159 26.2227C25.8371 25.3546 25.0233 24.7108 23.9958 24.2877L23.615 25.2124ZM25.5884 26.7842C26.0573 27.4632 26.3054 28.3129 26.3054 29.3612H27.3054C27.3054 28.1503 27.0165 27.0925 26.4113 26.216L25.5884 26.7842ZM26.3054 29.3612C26.3054 30.8725 25.721 32.0245 24.5415 32.8718L25.1249 33.684C26.575 32.6423 27.3054 31.1832 27.3054 29.3612H26.3054ZM24.5453 32.8691C23.3512 33.71 21.5361 34.1667 19.0276 34.1667V35.1667C21.6303 35.1667 23.6855 34.6976 25.1211 33.6867L24.5453 32.8691ZM19.0276 34.1667H8.97206V35.1667H19.0276V34.1667ZM13.4443 31.7779H18.6943V30.7779H13.4443V31.7779ZM18.6943 31.7779C19.8987 31.7779 20.8892 31.5894 21.5982 31.1463L21.0682 30.2983C20.592 30.5959 19.8232 30.7779 18.6943 30.7779V31.7779ZM21.6016 31.1441C22.3807 30.6483 22.7498 29.863 22.7498 28.889H21.7498C21.7498 29.5816 21.5079 30.0185 21.0647 30.3005L21.6016 31.1441ZM22.7498 28.889C22.7498 27.9284 22.377 27.155 21.6016 26.6616L21.0647 27.5052C21.5115 27.7896 21.7498 28.2199 21.7498 28.889H22.7498ZM21.6164 26.6714C20.9032 26.1811 19.9047 25.9723 18.6943 25.9723V26.9723C19.8172 26.9723 20.5779 27.171 21.0499 27.4954L21.6164 26.6714ZM18.6943 25.9723H13.1109V26.9723H18.6943V25.9723ZM13.6109 26.4723V23.1945H12.6109V26.4723H13.6109ZM13.1109 23.6945H17.9165V22.6945H13.1109V23.6945ZM17.9165 23.6945C19.0527 23.6945 19.9977 23.5042 20.6876 23.0591L20.1454 22.2188C19.6872 22.5145 18.9655 22.6945 17.9165 22.6945V23.6945ZM20.6908 23.057C21.4398 22.5655 21.8054 21.8158 21.8054 20.889H20.8054C20.8054 21.5177 20.5784 21.9347 20.1422 22.2209L20.6908 23.057ZM21.8054 20.889C21.8054 19.9752 21.4348 19.2414 20.6815 18.7705L20.1515 19.6185C20.5834 19.8884 20.8054 20.2842 20.8054 20.889H21.8054ZM20.6969 18.7806C20.005 18.3118 19.056 18.1112 17.9165 18.1112V19.1112C18.9622 19.1112 19.6799 19.2994 20.1361 19.6085L20.6969 18.7806ZM17.9165 18.1112H13.4443V19.1112H17.9165V18.1112ZM12.9443 18.6112V31.2779H13.9443V18.6112H12.9443ZM33.9688 34.6667H33.4688V35.1667H33.9688V34.6667ZM33.9688 18.889H34.4688V18.389H33.9688V18.889ZM27.7466 18.889H27.2466V19.389H27.7466V18.889ZM27.7466 15.2223V14.7223H27.2466V15.2223H27.7466ZM44.691 15.2223H45.191V14.7223H44.691V15.2223ZM44.691 18.889V19.389H45.191V18.889H44.691ZM38.4688 18.889V18.389H37.9688V18.889H38.4688ZM38.4688 34.6667V35.1667H38.9688V34.6667H38.4688ZM34.4688 34.6667V18.889H33.4688V34.6667H34.4688ZM33.9688 18.389H27.7466V19.389H33.9688V18.389ZM28.2466 18.889V15.2223H27.2466V18.889H28.2466ZM27.7466 15.7223H44.691V14.7223H27.7466V15.7223ZM44.191 15.2223V18.889H45.191V15.2223H44.191ZM44.691 18.389H38.4688V19.389H44.691V18.389ZM37.9688 18.889V34.6667H38.9688V18.889H37.9688ZM38.4688 34.1667H33.9688V35.1667H38.4688V34.1667Z" fill="#F9FAFB" mask="url(#path-2-outside-1_1112_2679)"/>
</g>
</svg>
